<svg width="16" height="15" viewBox="0 0 16 15" fill="none" xmlns="http://www.w3.org/2000/svg">
<path d="M11 1.25H9.375C7.375 1.25 6.125 2.5 6.125 4.5V7.03125H8.9L7.60625 5.7375C7.5125 5.64375 7.46875 5.525 7.46875 5.40625C7.46875 5.2875 7.5125 5.16875 7.60625 5.075C7.7875 4.89375 8.0875 4.89375 8.26875 5.075L10.3625 7.16875C10.5437 7.35 10.5437 7.65 10.3625 7.83125L8.26875 9.925C8.0875 10.1062 7.7875 10.1062 7.60625 9.925C7.425 9.74375 7.425 9.44375 7.60625 9.2625L8.9 7.96875H6.125V10.5C6.125 12.5 7.375 13.75 9.375 13.75H10.9938C12.9938 13.75 14.2437 12.5 14.2437 10.5V4.5C14.25 2.5 13 1.25 11 1.25Z" fill="black"/>
<path d="M2.21875 7.03125C1.9625 7.03125 1.75 7.24375 1.75 7.5C1.75 7.75625 1.9625 7.96875 2.21875 7.96875H6.125V7.03125H2.21875Z" fill="black"/>
</svg>
