<svg width="12" height="11" viewBox="0 0 12 11" fill="none" xmlns="http://www.w3.org/2000/svg">
<path d="M5.10738 0.743329C5.40621 -0.0555562 6.53696 -0.0555562 6.83578 0.743329L7.57916 2.73316C7.64254 2.9028 7.75443 3.05002 7.90089 3.15649C8.04735 3.26295 8.2219 3.32394 8.40278 3.33186L10.5241 3.42411C11.3772 3.46101 11.7259 4.53665 11.059 5.06801L9.39611 6.38995C9.25458 6.50281 9.14938 6.65483 9.09362 6.82708C9.03786 6.99931 9.034 7.18416 9.08252 7.35858L9.64974 9.4056C9.87755 10.2276 8.96262 10.8927 8.25153 10.4213L6.4807 9.2497C6.32971 9.14973 6.15265 9.09642 5.97158 9.09642C5.79051 9.09642 5.61345 9.14973 5.46247 9.2497L3.69164 10.4213C2.98054 10.8918 2.06561 10.2276 2.29342 9.4056L2.86156 7.35858C2.90998 7.18407 2.90598 6.99917 2.85005 6.82692C2.79413 6.65467 2.68875 6.5027 2.54705 6.38995L0.884132 5.06801C0.217304 4.53665 0.566858 3.46009 1.41907 3.42319L3.54038 3.33094C3.72137 3.32295 3.89599 3.26182 4.04247 3.15518C4.18894 3.04854 4.30077 2.90112 4.364 2.73132L5.10738 0.742406V0.743329Z" fill="#157F3C"/>
</svg>
